<?xml version="1.0" encoding="utf-8"?>
<!-- Generator: Adobe Illustrator 27.9.1, SVG Export Plug-In . SVG Version: 6.00 Build 0)  -->
<svg version="1.1" id="Layer_1" xmlns="http://www.w3.org/2000/svg" xmlns:xlink="http://www.w3.org/1999/xlink" x="0px" y="0px"
	 viewBox="0 0 2000 2000" style="enable-background:new 0 0 2000 2000;" xml:space="preserve">
<path d="M487.36,1044.69c54.69,0.34,109.37,0.67,164.06,1.01c0.34-192,0.68-384.01,1.02-576.01c13.01-2.71,31.51-5.99,53.87-7.97
	c60.45-5.36,118.64-10.52,159.64,22.65c29.71,24.03,39.2,64.51,43.69,81.44c3.84,14.48,5.36,26.94,6.02,35.35c0,0,0.3,3.88,0.45,7.8
	c0.74,19.28,1.94,507.87,2.7,851.6c-0.29,17.63,0.44,42.37,5.12,71.46c5.86,36.35,15.03,93.25,55.96,145.72
	c5.95,7.63,31.91,39.95,77.52,65.42c27.9,15.58,77.7,36.73,206.02,31.82c61-2.33,147.32-10.85,249.3-38.7
	c-0.27-230.71-0.54-461.41-0.8-692.12c-55.01,0.01-110.02,0.03-165.02,0.04c0.04,62.38,0.08,124.75,0.12,187.13
	c0.03,3.6,0.32,9,1.62,15.37c2.03,9.95,5.44,16.97,6.74,19.69c0,0,9.72,20.33,22.38,55.01c8.15,22.33,10.36,40.72,11.6,50.97
	c2.25,18.7,6.9,57.36-11.19,101.03c-5.57,13.45-23.3,54.68-65.4,79.91c-39.24,23.52-85.65,14.27-88.04,29.39
	c-0.56,3.57,1.57,6.38,5.85,11.81c16.61,21.13,45.09,29.59,78.13,39.4c1.91,0.57,10.65,3.14,10.4,4.74
	c-0.12,0.76-2.21,0.95-7.77,1.74c-7.07,1-10.56,1.66-11.39,1.75c-6.62,0.76-172.13,3.3-218.74-98.61
	c-15.63-34.17-15.52-75.19-14.5-82.86c1.57-11.78,4.85-26.02,4.85-26.02c0,0,0,0,0,0c5.59-19.63,14.97-36.37,30.34-56.22
	c35.01-45.23,56.85-49.5,54.2-63.1c-3.78-19.46-49.45-15.35-66.2-48.81c-5.09-10.16-5.7-20.16-5.53-26.56
	c-0.4-203.87-0.81-407.73-1.21-611.6c-0.47-6.79-1.24-16.9-2.43-29.12c-2.75-28.38-7.66-79.06-16.99-111.64
	c0,0-14.78-52.95-74.02-110.43c-73.57-71.38-271.58-93.07-500.76-20.63C488.42,585.93,487.89,815.31,487.36,1044.69z"/>
</svg>
